<mxfile modified="2022-08-16T06:04:34.467Z" host="app.diagrams.net" agent="5.0 (Windows NT 10.0; Win64; x64) AppleWebKit/537.36 (KHTML, like Gecko) Chrome/103.0.0.0 Safari/537.36" etag="mnKjZVll-7Gonql0xI_T" version="20.0.4" type="github">
  <diagram id="l8hXMBHkgcEJcSW0mbfh" name="Page-1">
    <mxGraphModel dx="1422" dy="762" grid="1" gridSize="10" guides="1" tooltips="1" connect="1" arrows="1" fold="1" page="1" pageScale="1" pageWidth="1600" pageHeight="1200" math="0" shadow="0">
      <root>
        <mxCell id="0" />
        <mxCell id="1" parent="0" />
        <mxCell id="4g0uPJAxf833FNb4WexL-21" style="edgeStyle=orthogonalEdgeStyle;rounded=0;orthogonalLoop=1;jettySize=auto;html=1;entryX=0;entryY=0.5;entryDx=0;entryDy=0;" edge="1" parent="1" source="4g0uPJAxf833FNb4WexL-4" target="4g0uPJAxf833FNb4WexL-16">
          <mxGeometry relative="1" as="geometry">
            <Array as="points">
              <mxPoint x="580" y="430" />
              <mxPoint x="580" y="180" />
            </Array>
          </mxGeometry>
        </mxCell>
        <mxCell id="4g0uPJAxf833FNb4WexL-25" style="edgeStyle=orthogonalEdgeStyle;rounded=0;orthogonalLoop=1;jettySize=auto;html=1;entryX=0;entryY=0.5;entryDx=0;entryDy=0;" edge="1" parent="1" source="4g0uPJAxf833FNb4WexL-4" target="4g0uPJAxf833FNb4WexL-18">
          <mxGeometry relative="1" as="geometry">
            <Array as="points">
              <mxPoint x="580" y="430" />
              <mxPoint x="580" y="340" />
            </Array>
          </mxGeometry>
        </mxCell>
        <mxCell id="4g0uPJAxf833FNb4WexL-4" value="mobile" style="rounded=0;whiteSpace=wrap;html=1;" vertex="1" parent="1">
          <mxGeometry x="350" y="400" width="120" height="60" as="geometry" />
        </mxCell>
        <mxCell id="4g0uPJAxf833FNb4WexL-20" style="edgeStyle=orthogonalEdgeStyle;rounded=0;orthogonalLoop=1;jettySize=auto;html=1;" edge="1" parent="1" source="4g0uPJAxf833FNb4WexL-5">
          <mxGeometry relative="1" as="geometry">
            <mxPoint x="680" y="180" as="targetPoint" />
            <Array as="points">
              <mxPoint x="580" y="320" />
              <mxPoint x="580" y="180" />
            </Array>
          </mxGeometry>
        </mxCell>
        <mxCell id="4g0uPJAxf833FNb4WexL-24" style="edgeStyle=orthogonalEdgeStyle;rounded=0;orthogonalLoop=1;jettySize=auto;html=1;entryX=0;entryY=0.5;entryDx=0;entryDy=0;" edge="1" parent="1" source="4g0uPJAxf833FNb4WexL-5" target="4g0uPJAxf833FNb4WexL-18">
          <mxGeometry relative="1" as="geometry">
            <Array as="points">
              <mxPoint x="580" y="320" />
              <mxPoint x="580" y="340" />
            </Array>
          </mxGeometry>
        </mxCell>
        <mxCell id="4g0uPJAxf833FNb4WexL-5" value="admin" style="rounded=0;whiteSpace=wrap;html=1;" vertex="1" parent="1">
          <mxGeometry x="350" y="290" width="120" height="60" as="geometry" />
        </mxCell>
        <mxCell id="4g0uPJAxf833FNb4WexL-19" style="edgeStyle=orthogonalEdgeStyle;rounded=0;orthogonalLoop=1;jettySize=auto;html=1;" edge="1" parent="1" source="4g0uPJAxf833FNb4WexL-6" target="4g0uPJAxf833FNb4WexL-16">
          <mxGeometry relative="1" as="geometry" />
        </mxCell>
        <mxCell id="4g0uPJAxf833FNb4WexL-23" style="edgeStyle=orthogonalEdgeStyle;rounded=0;orthogonalLoop=1;jettySize=auto;html=1;entryX=0;entryY=0.5;entryDx=0;entryDy=0;" edge="1" parent="1" source="4g0uPJAxf833FNb4WexL-6" target="4g0uPJAxf833FNb4WexL-18">
          <mxGeometry relative="1" as="geometry">
            <Array as="points">
              <mxPoint x="580" y="180" />
              <mxPoint x="580" y="340" />
            </Array>
          </mxGeometry>
        </mxCell>
        <mxCell id="4g0uPJAxf833FNb4WexL-6" value="webapi" style="rounded=0;whiteSpace=wrap;html=1;" vertex="1" parent="1">
          <mxGeometry x="350" y="150" width="120" height="60" as="geometry" />
        </mxCell>
        <mxCell id="4g0uPJAxf833FNb4WexL-12" style="edgeStyle=orthogonalEdgeStyle;rounded=0;orthogonalLoop=1;jettySize=auto;html=1;entryX=0;entryY=0.5;entryDx=0;entryDy=0;" edge="1" parent="1" source="4g0uPJAxf833FNb4WexL-7" target="4g0uPJAxf833FNb4WexL-6">
          <mxGeometry relative="1" as="geometry">
            <Array as="points">
              <mxPoint x="250" y="180" />
            </Array>
          </mxGeometry>
        </mxCell>
        <mxCell id="4g0uPJAxf833FNb4WexL-13" style="edgeStyle=orthogonalEdgeStyle;rounded=0;orthogonalLoop=1;jettySize=auto;html=1;entryX=0;entryY=0.5;entryDx=0;entryDy=0;" edge="1" parent="1" source="4g0uPJAxf833FNb4WexL-7" target="4g0uPJAxf833FNb4WexL-5">
          <mxGeometry relative="1" as="geometry">
            <Array as="points">
              <mxPoint x="250" y="540" />
              <mxPoint x="250" y="320" />
            </Array>
          </mxGeometry>
        </mxCell>
        <mxCell id="4g0uPJAxf833FNb4WexL-14" style="edgeStyle=orthogonalEdgeStyle;rounded=0;orthogonalLoop=1;jettySize=auto;html=1;entryX=0;entryY=0.5;entryDx=0;entryDy=0;" edge="1" parent="1" source="4g0uPJAxf833FNb4WexL-7" target="4g0uPJAxf833FNb4WexL-4">
          <mxGeometry relative="1" as="geometry">
            <Array as="points">
              <mxPoint x="250" y="430" />
            </Array>
          </mxGeometry>
        </mxCell>
        <mxCell id="4g0uPJAxf833FNb4WexL-42" style="edgeStyle=orthogonalEdgeStyle;rounded=0;orthogonalLoop=1;jettySize=auto;html=1;entryX=0;entryY=0.5;entryDx=0;entryDy=0;" edge="1" parent="1" source="4g0uPJAxf833FNb4WexL-7" target="4g0uPJAxf833FNb4WexL-28">
          <mxGeometry relative="1" as="geometry">
            <Array as="points">
              <mxPoint x="250" y="540" />
              <mxPoint x="250" y="640" />
            </Array>
          </mxGeometry>
        </mxCell>
        <mxCell id="4g0uPJAxf833FNb4WexL-43" style="edgeStyle=orthogonalEdgeStyle;rounded=0;orthogonalLoop=1;jettySize=auto;html=1;entryX=0;entryY=0.5;entryDx=0;entryDy=0;" edge="1" parent="1" source="4g0uPJAxf833FNb4WexL-7" target="4g0uPJAxf833FNb4WexL-29">
          <mxGeometry relative="1" as="geometry">
            <Array as="points">
              <mxPoint x="250" y="540" />
              <mxPoint x="250" y="770" />
            </Array>
          </mxGeometry>
        </mxCell>
        <mxCell id="4g0uPJAxf833FNb4WexL-44" style="edgeStyle=orthogonalEdgeStyle;rounded=0;orthogonalLoop=1;jettySize=auto;html=1;entryX=0;entryY=0.5;entryDx=0;entryDy=0;" edge="1" parent="1" source="4g0uPJAxf833FNb4WexL-7" target="4g0uPJAxf833FNb4WexL-30">
          <mxGeometry relative="1" as="geometry">
            <Array as="points">
              <mxPoint x="250" y="540" />
              <mxPoint x="250" y="880" />
            </Array>
          </mxGeometry>
        </mxCell>
        <mxCell id="4g0uPJAxf833FNb4WexL-7" value="Nginx" style="whiteSpace=wrap;html=1;aspect=fixed;" vertex="1" parent="1">
          <mxGeometry x="110" y="490" width="100" height="100" as="geometry" />
        </mxCell>
        <mxCell id="4g0uPJAxf833FNb4WexL-41" style="edgeStyle=orthogonalEdgeStyle;rounded=0;orthogonalLoop=1;jettySize=auto;html=1;entryX=0;entryY=0.5;entryDx=0;entryDy=0;" edge="1" parent="1" source="4g0uPJAxf833FNb4WexL-9" target="4g0uPJAxf833FNb4WexL-7">
          <mxGeometry relative="1" as="geometry" />
        </mxCell>
        <mxCell id="4g0uPJAxf833FNb4WexL-9" value="Actor" style="shape=umlActor;verticalLabelPosition=bottom;verticalAlign=top;html=1;outlineConnect=0;" vertex="1" parent="1">
          <mxGeometry x="20" y="280" width="30" height="60" as="geometry" />
        </mxCell>
        <mxCell id="4g0uPJAxf833FNb4WexL-11" value="测试灰度请求" style="text;html=1;align=center;verticalAlign=middle;resizable=0;points=[];autosize=1;strokeColor=none;fillColor=none;" vertex="1" parent="1">
          <mxGeometry x="30" y="390" width="100" height="30" as="geometry" />
        </mxCell>
        <mxCell id="4g0uPJAxf833FNb4WexL-15" value="请求头带灰度标识" style="text;html=1;align=center;verticalAlign=middle;resizable=0;points=[];autosize=1;strokeColor=none;fillColor=none;" vertex="1" parent="1">
          <mxGeometry x="190" y="325" width="120" height="30" as="geometry" />
        </mxCell>
        <mxCell id="4g0uPJAxf833FNb4WexL-26" style="edgeStyle=orthogonalEdgeStyle;rounded=0;orthogonalLoop=1;jettySize=auto;html=1;" edge="1" parent="1" source="4g0uPJAxf833FNb4WexL-16" target="4g0uPJAxf833FNb4WexL-18">
          <mxGeometry relative="1" as="geometry" />
        </mxCell>
        <mxCell id="4g0uPJAxf833FNb4WexL-16" value="order标签服务" style="rounded=0;whiteSpace=wrap;html=1;" vertex="1" parent="1">
          <mxGeometry x="680" y="150" width="120" height="60" as="geometry" />
        </mxCell>
        <mxCell id="4g0uPJAxf833FNb4WexL-18" value="goods标签服务" style="rounded=0;whiteSpace=wrap;html=1;" vertex="1" parent="1">
          <mxGeometry x="680" y="310" width="120" height="60" as="geometry" />
        </mxCell>
        <mxCell id="4g0uPJAxf833FNb4WexL-22" value="标签路由请求" style="text;html=1;align=center;verticalAlign=middle;resizable=0;points=[];autosize=1;strokeColor=none;fillColor=none;" vertex="1" parent="1">
          <mxGeometry x="500" y="255" width="100" height="30" as="geometry" />
        </mxCell>
        <mxCell id="4g0uPJAxf833FNb4WexL-27" value="标签路由请求" style="text;html=1;align=center;verticalAlign=middle;resizable=0;points=[];autosize=1;strokeColor=none;fillColor=none;" vertex="1" parent="1">
          <mxGeometry x="730" y="235" width="100" height="30" as="geometry" />
        </mxCell>
        <mxCell id="4g0uPJAxf833FNb4WexL-47" style="edgeStyle=orthogonalEdgeStyle;rounded=0;orthogonalLoop=1;jettySize=auto;html=1;entryX=0;entryY=0.5;entryDx=0;entryDy=0;" edge="1" parent="1" source="4g0uPJAxf833FNb4WexL-28" target="4g0uPJAxf833FNb4WexL-45">
          <mxGeometry relative="1" as="geometry" />
        </mxCell>
        <mxCell id="4g0uPJAxf833FNb4WexL-28" value="webapi" style="rounded=0;whiteSpace=wrap;html=1;" vertex="1" parent="1">
          <mxGeometry x="350" y="610" width="120" height="60" as="geometry" />
        </mxCell>
        <mxCell id="4g0uPJAxf833FNb4WexL-48" style="edgeStyle=orthogonalEdgeStyle;rounded=0;orthogonalLoop=1;jettySize=auto;html=1;" edge="1" parent="1" source="4g0uPJAxf833FNb4WexL-29" target="4g0uPJAxf833FNb4WexL-46">
          <mxGeometry relative="1" as="geometry" />
        </mxCell>
        <mxCell id="4g0uPJAxf833FNb4WexL-29" value="admin" style="rounded=0;whiteSpace=wrap;html=1;" vertex="1" parent="1">
          <mxGeometry x="350" y="740" width="120" height="60" as="geometry" />
        </mxCell>
        <mxCell id="4g0uPJAxf833FNb4WexL-50" style="edgeStyle=orthogonalEdgeStyle;rounded=0;orthogonalLoop=1;jettySize=auto;html=1;entryX=0;entryY=0.5;entryDx=0;entryDy=0;" edge="1" parent="1" source="4g0uPJAxf833FNb4WexL-30" target="4g0uPJAxf833FNb4WexL-46">
          <mxGeometry relative="1" as="geometry" />
        </mxCell>
        <mxCell id="4g0uPJAxf833FNb4WexL-30" value="mobile" style="rounded=0;whiteSpace=wrap;html=1;" vertex="1" parent="1">
          <mxGeometry x="350" y="850" width="120" height="60" as="geometry" />
        </mxCell>
        <mxCell id="4g0uPJAxf833FNb4WexL-34" style="edgeStyle=orthogonalEdgeStyle;rounded=0;orthogonalLoop=1;jettySize=auto;html=1;entryX=0;entryY=0.5;entryDx=0;entryDy=0;" edge="1" parent="1" source="4g0uPJAxf833FNb4WexL-31" target="4g0uPJAxf833FNb4WexL-7">
          <mxGeometry relative="1" as="geometry" />
        </mxCell>
        <mxCell id="4g0uPJAxf833FNb4WexL-31" value="Actor" style="shape=umlActor;verticalLabelPosition=bottom;verticalAlign=top;html=1;outlineConnect=0;" vertex="1" parent="1">
          <mxGeometry x="20" y="710" width="30" height="60" as="geometry" />
        </mxCell>
        <mxCell id="4g0uPJAxf833FNb4WexL-35" value="线上用户请求" style="text;html=1;align=center;verticalAlign=middle;resizable=0;points=[];autosize=1;strokeColor=none;fillColor=none;" vertex="1" parent="1">
          <mxGeometry y="615" width="100" height="30" as="geometry" />
        </mxCell>
        <mxCell id="4g0uPJAxf833FNb4WexL-51" style="edgeStyle=orthogonalEdgeStyle;rounded=0;orthogonalLoop=1;jettySize=auto;html=1;" edge="1" parent="1" source="4g0uPJAxf833FNb4WexL-45" target="4g0uPJAxf833FNb4WexL-46">
          <mxGeometry relative="1" as="geometry" />
        </mxCell>
        <mxCell id="4g0uPJAxf833FNb4WexL-45" value="order服务" style="rounded=0;whiteSpace=wrap;html=1;" vertex="1" parent="1">
          <mxGeometry x="670" y="610" width="120" height="60" as="geometry" />
        </mxCell>
        <mxCell id="4g0uPJAxf833FNb4WexL-46" value="goods服务" style="rounded=0;whiteSpace=wrap;html=1;" vertex="1" parent="1">
          <mxGeometry x="670" y="740" width="120" height="60" as="geometry" />
        </mxCell>
      </root>
    </mxGraphModel>
  </diagram>
</mxfile>
